# Blender v2.79 (sub 0) OBJ File: 'LArm.blend'
# www.blender.org
mtllib LArm.mtl
o body_Plane
v 0.926936 3.510802 0.018468
v 0.580527 4.437712 0.431070
v 0.753979 4.995201 0.128143
v 0.943273 3.594738 0.247595
v 0.739285 4.344826 0.258975
v 0.729520 4.386434 -0.189193
v 0.639201 4.326129 -0.147375
v 0.659102 4.299703 0.250346
v 0.618140 4.183925 0.045254
v 0.916818 4.426871 0.020435
v 0.884913 4.429231 0.126804
v 0.890984 4.478417 -0.189193
v 0.863610 4.028203 0.116807
v 0.816363 4.000708 -0.118020
v 0.713837 3.974916 -0.087964
v 0.749434 4.020328 0.129319
v 0.726976 3.955871 0.023746
v 0.983498 4.027666 -0.004503
v 0.941033 4.037680 0.074482
v 0.989610 4.028784 -0.130434
v 0.942066 3.813601 0.203184
v 0.857078 3.756714 -0.091741
v 0.754553 3.737198 -0.051543
v 0.801147 3.810115 0.187130
v 0.767865 3.740436 0.085270
v 1.049758 3.810516 0.031931
v 1.027002 3.854828 0.137691
v 1.036406 3.799967 -0.114143
v 0.851752 3.499676 0.053866
v 0.868705 3.578401 0.258547
v 0.861387 3.512632 0.168245
v 1.088264 3.553251 0.112318
v 1.043499 3.601363 0.205801
v 1.058442 3.540612 -0.004133
v 0.976242 3.212827 0.159604
v 1.003315 3.297787 0.341564
v 0.924580 3.201701 0.189425
v 0.927004 3.279513 0.363229
v 0.931201 3.214657 0.285785
v 1.089622 3.253502 0.246428
v 1.053815 3.302558 0.324884
v 1.066603 3.242637 0.140563
v 0.973816 3.143502 0.219249
v 0.952364 3.170197 0.413495
v 0.918065 3.146732 0.240494
v 0.894804 3.171306 0.414669
v 0.917014 3.159743 0.326058
v 1.070288 3.156482 0.304616
v 1.035342 3.179152 0.370076
v 1.070490 3.142557 0.213036
v 0.779634 4.897337 -0.144323
v 0.626725 4.470845 0.347909
v 0.683435 4.567142 0.382341
v 0.864743 4.857497 0.101216
v 0.821549 4.828290 0.225807
v 0.980864 3.086491 0.248810
v 0.937586 3.139585 0.449942
v 0.927803 3.089721 0.270055
v 0.868791 3.135741 0.437437
v 0.926803 3.102732 0.355619
v 1.072682 3.101169 0.313000
v 1.072904 3.111724 0.382549
v 1.072874 3.085546 0.242597
v 0.993667 3.008365 0.237086
v 0.994072 3.031306 0.478048
v 0.949070 3.011596 0.265240
v 0.916955 3.001885 0.464963
v 0.948229 3.024606 0.361540
v 1.070839 3.024740 0.350063
v 1.063610 3.027360 0.409663
v 1.071000 3.007421 0.228853
v 0.993667 2.911236 0.236893
v 1.011382 2.950441 0.527540
v 0.949070 2.914467 0.270701
v 0.929484 2.930027 0.525564
v 0.948229 2.927477 0.389184
v 1.070839 2.928460 0.382898
v 1.063610 2.937868 0.452674
v 1.071000 2.910292 0.227006
v 0.993250 2.787751 0.269233
v 1.033099 2.855044 0.571421
v 0.947403 2.793955 0.311630
v 0.957193 2.852631 0.565657
v 0.942714 2.816088 0.411847
v 1.070839 2.822362 0.414708
v 1.063610 2.831995 0.485596
v 1.071000 2.783442 0.259583
v 0.949556 2.933612 0.461997
v 0.946709 2.834813 0.491656
v 0.949784 3.031794 0.433932
v 0.946350 2.804379 0.362937
v 0.948707 3.017214 0.306820
v 0.948671 2.920649 0.326997
v 1.070918 2.800681 0.328768
v 1.070927 3.013712 0.270966
v 1.070921 2.917142 0.286578
v 0.675756 4.154112 -0.118277
v 0.647545 4.029461 0.034719
v 0.972916 4.267132 -0.160414
v 0.772054 4.197514 -0.154334
v 0.978070 4.215551 0.121239
v 0.829606 4.149728 0.197997
v 0.701652 4.151103 0.190894
v 0.996605 4.226213 0.013562
v 0.659783 4.504317 -0.165765
v 0.733643 4.518204 0.297346
v 0.942830 4.735174 0.027468
v 0.869430 4.722823 -0.138891
v 0.660590 4.381185 0.280256
v 0.600026 4.252015 0.089650
v 0.588102 4.387592 -0.120207
v 0.895614 4.727473 0.178495
v 0.999274 2.756345 0.582476
v 0.945796 2.777985 0.587019
v 1.017113 2.738749 0.524332
v 0.939985 2.775269 0.534239
v 0.943314 2.664544 0.599729
v 0.891484 2.690756 0.609911
v 0.957911 2.649985 0.545591
v 0.883814 2.692732 0.564228
v 0.863908 2.581631 0.613210
v 0.822779 2.624004 0.618292
v 0.875181 2.565633 0.562761
v 0.818050 2.631086 0.573979
v 0.937085 2.762767 0.495576
v 0.932470 2.750650 0.436335
v 1.006098 2.724973 0.438459
v 1.003194 2.733384 0.491077
v 0.883204 2.676152 0.500374
v 0.885256 2.664258 0.440502
v 0.955896 2.631850 0.451978
v 0.946897 2.640689 0.504224
v 0.803752 2.570058 0.520198
v 0.810468 2.558024 0.451804
v 0.873889 2.534000 0.464914
v 0.863713 2.541936 0.524596
v 1.003426 2.716928 0.351591
v 1.007959 2.731677 0.415512
v 0.936464 2.765820 0.413384
v 0.935984 2.756777 0.377006
v 0.952642 2.626001 0.366276
v 0.959585 2.643069 0.429631
v 0.878129 2.691206 0.427522
v 0.876607 2.680499 0.391466
v 0.906439 2.551801 0.379216
v 0.913188 2.568392 0.440799
v 0.834010 2.615184 0.438749
v 0.832530 2.604776 0.403701
v 0.938584 2.756078 0.333644
v 0.942515 2.745637 0.301132
v 0.966408 2.731388 0.270121
v 1.004275 2.713783 0.274942
v 1.001561 2.728543 0.329230
v 0.896484 2.684119 0.341257
v 0.900525 2.674369 0.310857
v 0.919338 2.660348 0.285600
v 0.948571 2.642704 0.290108
v 0.944900 2.656378 0.337130
v 0.841765 2.625630 0.361251
v 0.847476 2.617838 0.323762
v 0.874123 2.598013 0.300207
v 0.915261 2.568894 0.304995
v 0.911459 2.580884 0.355663
v 0.802083 2.903971 0.650292
v 0.753869 2.917024 0.571086
v 0.872446 2.860128 0.610938
v 0.824854 2.861492 0.569686
v 0.916620 2.951227 0.585593
v 0.838195 2.996995 0.585600
v 0.786264 2.983454 0.514370
v 0.910746 2.935203 0.557802
v 0.734195 3.856056 -0.069754
v 0.747420 3.848153 0.054508
v 1.013008 3.914375 -0.122288
v 0.836720 3.878711 -0.195791
v 0.986337 3.939305 0.087114
v 0.901950 3.917987 0.158689
v 0.764688 3.918113 0.158224
v 1.016628 3.919091 0.013714
v 0.910801 3.092888 0.500870
v 0.924254 2.982626 0.499816
v 0.974626 3.007018 0.518422
v 0.848337 3.085403 0.466319
v -0.284680 5.580670 0.293720
v 0.558086 4.444785 0.575802
vn -0.9043 -0.3415 -0.2562
vn -0.0792 0.1796 -0.9805
vn -0.0092 -0.1519 -0.9884
vn -0.4383 -0.0420 -0.8978
vn 0.2146 -0.3861 -0.8972
vn -0.2381 -0.2198 -0.9460
vn -0.0371 -0.4049 -0.9136
vn -0.2664 -0.2245 -0.9374
vn 0.0470 -0.1426 -0.9887
vn -0.9342 -0.2053 -0.2917
vn 0.1110 0.2996 -0.9476
vn -0.9294 -0.3324 0.1599
vn -0.9545 -0.2974 0.0215
vn -0.5106 -0.3549 0.7831
vn 0.0812 -0.3493 0.9335
vn 0.3389 -0.1745 0.9245
vn 0.6288 -0.2172 0.7465
vn -0.8771 -0.4612 0.1341
vn -0.9412 -0.3001 0.1548
vn -0.4469 -0.3299 0.8315
vn -0.4490 -0.4327 0.7818
vn 0.3041 -0.2729 0.9127
vn 0.3169 -0.0196 0.9482
vn 0.7750 0.0537 0.6296
vn 0.8144 0.0189 0.5800
vn -0.6615 -0.2735 -0.6982
vn -0.7853 -0.2178 -0.5795
vn 0.8598 0.0902 0.5026
vn 0.8303 0.0435 0.5556
vn 0.9787 0.1924 0.0711
vn 0.9717 0.2355 -0.0187
vn 0.5545 0.1321 -0.8216
vn 0.8279 0.2934 -0.4780
vn -0.9698 -0.1437 0.1970
vn -0.9488 -0.2281 0.2185
vn -0.6004 0.0648 0.7971
vn -0.6284 0.1172 0.7690
vn 0.2126 0.4097 0.8871
vn 0.2181 0.3251 0.9202
vn 0.7454 0.3931 0.5383
vn 0.7317 0.4523 0.5100
vn -0.8972 -0.2138 -0.3865
vn -0.8015 -0.4201 -0.4256
vn 0.9804 0.1316 0.1466
vn 0.9839 0.1359 0.1164
vn 0.7070 0.1299 -0.6952
vn 0.7222 0.0708 -0.6880
vn -0.9620 -0.2177 0.1648
vn -0.5891 0.0714 0.8049
vn 0.2004 0.2936 0.9347
vn 0.7382 0.2457 0.6283
vn -0.7631 -0.4563 -0.4576
vn -0.1883 -0.1133 -0.9755
vn -0.1769 -0.4490 -0.8758
vn 0.9786 0.2037 0.0279
vn 0.9433 0.3186 0.0930
vn 0.6991 -0.1696 -0.6946
vn 0.7586 0.1289 -0.6386
vn -0.1732 -0.4451 -0.8786
vn 0.9968 0.0683 0.0410
vn 0.6258 -0.2792 -0.7283
vn 0.9934 -0.0145 0.1139
vn 0.5973 -0.4091 -0.6898
vn -0.7632 -0.4197 -0.4913
vn -0.9995 0.0290 -0.0078
vn -0.1698 -0.5388 -0.8251
vn 0.2512 0.3479 0.9033
vn 0.6942 0.2384 0.6791
vn -0.6222 0.2936 0.7256
vn 0.9842 0.0905 0.1519
vn 0.6742 -0.4160 -0.6102
vn -0.8603 -0.2664 -0.4345
vn -0.9877 0.0195 -0.1548
vn -0.1891 -0.5548 -0.8102
vn -0.7645 0.5117 0.3920
vn 0.2275 0.4986 0.8365
vn 0.6718 0.3294 0.6634
vn 0.7704 -0.0975 -0.6300
vn -0.2606 -0.2142 -0.9414
vn -0.9436 0.3054 0.1279
vn 0.1905 0.6092 0.7698
vn 0.8539 0.2808 0.4382
vn -0.8599 -0.2805 -0.4264
vn 0.9955 0.0783 0.0524
vn -0.9429 -0.2607 -0.2072
vn 0.8894 0.1997 0.4111
vn 0.9991 -0.0098 0.0416
vn -0.9007 -0.3135 -0.3008
vn -0.6948 -0.5213 -0.4955
vn 0.9999 -0.0117 0.0037
vn 0.6518 0.0556 -0.7564
vn -0.9910 -0.1335 0.0102
vn -0.9909 -0.1327 0.0209
vn -0.3039 0.0407 -0.9518
vn -0.1709 0.6246 0.7620
vn -0.3962 -0.1109 0.9114
vn 0.5002 -0.7262 0.4715
vn 0.8194 -0.1253 0.5594
vn 0.5777 0.3586 0.7332
vn -0.8476 -0.0732 -0.5255
vn 0.9277 0.1932 0.3194
vn 0.9984 0.0191 0.0526
vn -0.9769 -0.1260 -0.1724
vn -0.8292 0.2104 0.5178
vn 1.0000 0.0002 0.0011
vn 0.6320 -0.0936 -0.7693
vn -0.9998 0.0079 -0.0171
vn -0.9998 0.0186 -0.0007
vn -0.3728 -0.1238 -0.9196
vn 0.3699 0.4696 0.8016
vn -0.8801 -0.0705 -0.4694
vn 0.9376 -0.2125 0.2751
vn 0.9500 -0.2981 0.0926
vn -0.9961 -0.0720 0.0506
vn -0.6329 0.2441 0.7348
vn 0.9201 -0.3847 0.0731
vn 0.6976 -0.4292 -0.5736
vn -0.9948 -0.0345 -0.0963
vn -0.9998 0.0152 -0.0043
vn -0.3713 -0.0927 -0.9239
vn 0.5700 0.1619 0.8055
vn -0.9220 0.0703 -0.3807
vn 0.8768 0.4734 0.0843
vn 0.8079 0.5205 -0.2762
vn 0.6446 -0.2381 0.7265
vn 0.8123 0.1768 0.5558
vn 0.5374 -0.4556 0.7096
vn -0.8023 0.0418 -0.5955
vn -0.4954 0.3570 0.7918
vn 0.5965 -0.2933 0.7470
vn 0.6285 -0.5098 -0.5874
vn 0.4420 -0.4713 -0.7632
vn -0.7178 0.2055 -0.6652
vn -0.7428 0.1364 0.6555
vn 0.5240 -0.4804 0.7033
vn 0.6461 -0.5939 -0.4794
vn 0.5632 -0.5929 -0.5755
vn -0.6875 0.4269 -0.5874
vn 0.5958 -0.1458 0.7898
vn 0.0284 -0.8860 -0.4628
vn -0.8953 0.0894 -0.4364
vn -0.3591 0.4537 0.8156
vn 0.5604 -0.2954 0.7737
vn -0.7355 -0.0342 0.6766
vn -0.0562 -0.7416 0.6684
vn 0.6625 -0.5102 -0.5483
vn -0.5287 0.2557 -0.8094
vn -0.6642 0.0892 -0.7422
vn -0.5973 0.2493 0.7623
vn 0.2639 -0.8720 -0.4123
vn -0.7339 -0.3228 -0.5976
vn -0.5968 0.4870 0.6377
vn 0.5741 -0.2926 0.7647
vn -0.8121 -0.1176 0.5716
vn 0.1411 -0.6744 0.7247
vn 0.4851 -0.4081 -0.7734
vn -0.6919 0.3475 -0.6329
vn 0.5879 -0.3168 0.7443
vn -0.6269 0.3175 0.7115
vn 0.0668 -0.8523 -0.5187
vn -0.8798 -0.2850 -0.3805
vn 0.6435 -0.2611 0.7196
vn -0.5902 0.5053 0.6296
vn 0.2496 -0.6725 0.6967
vn -0.7672 -0.0700 0.6376
vn 0.6131 -0.2319 0.7552
vn 0.6130 -0.5039 -0.6085
vn 0.5436 -0.5785 -0.6081
vn -0.8024 0.3263 -0.4996
vn -0.3601 0.0572 -0.9311
vn -0.3450 0.0472 -0.9374
vn -0.5964 -0.4702 -0.6505
vn -0.9302 -0.1498 -0.3349
vn -0.7350 0.4367 -0.5187
vn -0.5569 0.5532 0.6195
vn -0.7974 0.0130 0.6033
vn 0.2610 -0.8849 -0.3857
vn 0.2433 -0.6845 0.6872
vn -0.9648 -0.1839 -0.1881
vn -0.1190 -0.9133 -0.3894
vn 0.4434 -0.6766 -0.5879
vn -0.8138 0.1815 -0.5521
vn 0.8843 -0.2254 0.4089
vn 0.2295 -0.7610 -0.6068
vn -0.9616 0.2138 -0.1721
vn 0.0564 0.6715 0.7389
vn -0.2081 -0.0002 -0.9781
usemtl None
s off
f 111//1 7//1 9//1 110//1
f 108//2 12//2 6//2 105//2
f 99//3 20//3 14//3 100//3
f 105//4 6//4 7//4 111//4
f 174//5 28//5 22//5 175//5
f 100//6 14//6 15//6 97//6
f 28//7 34//7 1//7 22//7
f 6//8 100//8 97//8 7//8
f 12//9 99//9 100//9 6//9
f 7//10 97//10 98//10 9//10
f 20//11 174//11 175//11 14//11
s 1
f 110//12 9//13 8//14 109//15
f 109//15 8//14 5//16 106//17
f 98//18 17//19 16//20 103//21
f 102//22 13//23 19//24 101//25
f 97//26 15//27 17//19 98//18
f 112//28 11//29 10//30 107//31
f 106//17 5//16 11//29 112//28
f 107//31 10//30 12//32 108//33
f 173//34 25//35 24//36 178//37
f 177//38 21//39 27//40 176//41
f 172//42 23//43 25//35 173//34
f 101//25 19//24 18//44 104//45
f 103//21 16//20 13//23 102//22
f 104//45 18//44 20//46 99//47
f 25//35 31//48 30//49 24//36
f 21//39 4//50 33//51 27//40
f 23//43 29//52 31//48 25//35
f 175//53 22//54 23//43 172//42
f 176//41 27//40 26//55 179//56
f 178//37 24//36 21//39 177//38
f 179//56 26//55 28//57 174//58
f 22//54 1//59 29//52 23//43
f 27//40 33//51 32//60 26//55
f 24//36 30//49 4//50 21//39
f 26//55 32//60 34//61 28//57
f 32//60 40//62 42//63 34//61
f 29//52 37//64 39//65 31//48
f 34//61 42//63 35//66 1//59
f 4//50 36//67 41//68 33//51
f 1//59 35//66 37//64 29//52
f 33//51 41//68 40//62 32//60
f 30//49 38//69 36//67 4//50
f 31//48 39//65 38//69 30//49
f 40//62 48//70 50//71 42//63
f 37//64 45//72 47//73 39//65
f 42//63 50//71 43//74 35//66
f 38//69 46//75 44//76 36//67
f 36//67 44//76 49//77 41//68
f 35//66 43//74 45//72 37//64
f 41//68 49//77 48//70 40//62
f 39//65 47//73 46//75 38//69
f 50//71 63//78 56//79 43//74
f 46//75 59//80 57//81 44//76
f 44//76 57//81 62//82 49//77
f 43//74 56//79 58//83 45//72
f 49//77 62//82 61//84 48//70
f 47//73 60//85 59//80 46//75
f 48//70 61//84 63//78 50//71
f 45//72 58//83 60//85 47//73
f 62//82 70//86 69//87 61//84
f 60//85 90//88 67//89 59//80
f 61//84 95//90 71//91 63//78
f 60//85 92//92 68//93
f 63//78 71//91 64//94 56//79
f 169//95 164//96 166//97 168//98
f 57//81 65//99 70//86 62//82
f 56//79 64//94 66//100 58//83
f 70//86 78//101 77//102 69//87
f 90//88 88//103 75//104 67//89
f 95//90 96//105 79//106 71//91
f 92//92 93//107 76//108 68//93
f 71//91 79//106 72//109 64//94
f 67//89 75//104 73//110 65//99
f 65//99 73//110 78//101 70//86
f 64//94 72//109 74//111 66//100
f 78//101 86//112 85//113 77//102
f 88//103 89//114 83//115 75//104
f 96//105 94//116 87//117 79//106
f 93//107 91//118 84//119 76//108
f 79//106 87//117 80//120 72//109
f 75//104 83//115 81//121 73//110
f 73//110 81//121 86//112 78//101
f 72//109 80//120 82//122 74//111
f 68//93 76//108 88//103 90//88
f 68//93 90//88 60//85
f 76//108 84//119 89//114 88//103
f 74//111 82//122 91//118 93//107
f 66//100 74//111 93//107 92//92
f 58//83 66//100 92//92 60//85
f 77//102 85//113 94//116 96//105
f 69//87 77//102 96//105 95//90
f 69//87 95//90 61//84
f 10//30 104//45 99//47 12//32
f 8//14 103//21 102//22 5//16
f 11//29 101//25 104//45 10//30
f 5//16 102//22 101//25 11//29
f 9//13 98//18 103//21 8//14
f 54//123 107//31 108//33 51//124
f 53//125 106//17 112//28 55//126
f 55//126 112//28 107//31 54//123
f 52//127 109//15 106//17 53//125
f 89//114 116//128 114//129 83//115
f 86//112 128//130 127//131 85//113
f 94//116 137//132 140//133 91//118
f 91//118 149//134 153//135 94//116
f 115//136 119//137 120//138 116//128
f 86//112 115//136 116//128 89//114
f 83//115 114//129 113//139 81//121
f 81//121 113//139 115//136 86//112
f 119//137 123//140 124//141 120//138
f 114//129 118//142 117//143 113//139
f 113//139 117//143 119//137 115//136
f 116//128 120//138 118//142 114//129
f 122//144 124//141 123//140 121//145
f 118//142 122//144 121//145 117//143
f 117//143 121//145 123//140 119//137
f 120//138 124//141 122//144 118//142
f 127//131 131//146 130//147 126//148
f 84//119 126//148 125//149 89//114
f 89//114 125//149 128//130 86//112
f 85//113 127//131 126//148 84//119
f 131//146 135//150 134//151 130//147
f 126//148 130//147 129//152 125//149
f 128//130 132//153 131//146 127//131
f 125//149 129//152 132//153 128//130
f 133//154 134//151 135//150 136//155
f 130//147 134//151 133//154 129//152
f 132//153 136//155 135//150 131//146
f 129//152 133//154 136//155 132//153
f 137//132 141//156 144//157 140//133
f 85//113 138//158 137//132 94//116
f 91//118 140//133 139//159 84//119
f 84//119 139//159 138//158 85//113
f 141//156 145//160 148//161 144//157
f 138//158 142//162 141//156 137//132
f 140//133 144//157 143//163 139//159
f 139//159 143//163 142//162 138//158
f 145//160 146//164 147//165 148//161
f 142//162 146//164 145//160 141//156
f 144//157 148//161 147//165 143//163
f 143//163 147//165 146//164 142//162
f 153//135 158//166 157//167 152//168
f 94//116 153//135 152//168 87//117
f 82//122 150//169 149//134 91//118
f 87//117 152//168 151//170 80//120
f 80//120 151//170 150//169 82//122
f 156//171 161//172 160//173 155//174
f 149//134 154//175 158//166 153//135
f 150//169 155//174 154//175 149//134
f 151//170 156//171 155//174 150//169
f 152//168 157//167 156//171 151//170
f 159//176 160//173 161//172 162//177 163//178
f 157//167 162//177 161//172 156//171
f 158//166 163//178 162//177 157//167
f 154//175 159//176 163//178 158//166
f 155//174 160//173 159//176 154//175
f 165//179 167//180 166//97 164//96
f 171//181 167//180 165//179 170//182
f 170//182 165//179 164//96 169//95
f 168//98 166//97 167//180 171//181
f 182//183 168//98 171//181 181//184
f 183//185 170//182 169//95 180//186
f 181//184 171//181 170//182 183//185
f 180//186 169//95 168//98 182//183
f 18//44 179//56 174//58 20//46
f 16//20 178//37 177//38 13//23
f 19//24 176//41 179//56 18//44
f 14//187 175//53 172//42 15//27
f 15//27 172//42 173//34 17//19
f 13//23 177//38 176//41 19//24
f 17//19 173//34 178//37 16//20
f 57//81 180//186 182//183 65//99
f 67//89 181//184 183//185 59//80
f 59//80 183//185 180//186 57//81
f 65//99 182//183 181//184 67//89
l 52 2
l 185 2
l 3 54
